<?xml version="1.0" encoding="UTF-8" standalone="no"?>
<svg
   xml:space="preserve"
   viewBox="0 0 123.94286 93"
   version="1.1"
   id="svg9"
   sodipodi:docname="68747470733a2f2f63646e2e6a7364656c6976722e6e65742f67682f64657669636f6e732f64657669636f6e406c61746573742f69636f6e732f706f7765727368656c6c2f706f7765727368656c6c2d6f726967696e616c2e737667.svg"
   width="123.94286"
   height="93"
   inkscape:version="1.4.2 (ebf0e94, 2025-05-08)"
   xmlns:inkscape="http://www.inkscape.org/namespaces/inkscape"
   xmlns:sodipodi="http://sodipodi.sourceforge.net/DTD/sodipodi-0.dtd"
   xmlns="http://www.w3.org/2000/svg"
   xmlns:svg="http://www.w3.org/2000/svg"><defs
     id="defs9" /><sodipodi:namedview
     id="namedview9"
     pagecolor="#ffffff"
     bordercolor="#000000"
     borderopacity="0.25"
     inkscape:showpageshadow="2"
     inkscape:pageopacity="0.0"
     inkscape:pagecheckerboard="0"
     inkscape:deskcolor="#d1d1d1"
     showgrid="false"
     inkscape:zoom="7.3362329"
     inkscape:cx="83.421561"
     inkscape:cy="58.613189"
     inkscape:window-width="3840"
     inkscape:window-height="1529"
     inkscape:window-x="-8"
     inkscape:window-y="-8"
     inkscape:window-maximized="1"
     inkscape:current-layer="svg9" /><linearGradient
     id="a"
     x1="96.306"
     x2="25.454"
     y1="35.144001"
     y2="98.431"
     gradientTransform="matrix(1,0,0,-1,-2.0285714,110.5)"
     gradientUnits="userSpaceOnUse"><stop
       offset="0"
       stop-color="#a9c8ff"
       id="stop1" /><stop
       offset="1"
       stop-color="#c7e6ff"
       id="stop2" /></linearGradient><path
     fill="url(#a)"
     fill-rule="evenodd"
     d="m 5.1714286,93 c -1.7,0 -3.1,-0.7 -4.1,-1.9 C 0.07142857,89.9 -0.22857143,88.2 0.17142857,86.5 L 18.771429,6 c 0.8,-3.4 4,-6 7.4,-6 h 92.600001 c 1.7,0 3.1,0.7 4.1,1.9 1,1.2 1.3,2.9 0.9,4.6 l -18.6,80.5 c -0.8,3.4 -4,6 -7.400001,6 z"
     clip-rule="evenodd"
     opacity="0.8"
     id="path2"
     style="fill:url(#a)" /><linearGradient
     id="b"
     x1="25.336"
     x2="94.569"
     y1="98.330002"
     y2="36.847"
     gradientTransform="matrix(1,0,0,-1,-2.0285714,110.5)"
     gradientUnits="userSpaceOnUse"><stop
       offset="0"
       stop-color="#2d4664"
       id="stop3" /><stop
       offset=".169"
       stop-color="#29405b"
       id="stop4" /><stop
       offset=".445"
       stop-color="#1e2f43"
       id="stop5" /><stop
       offset=".79"
       stop-color="#0c131b"
       id="stop6" /><stop
       offset="1"
       id="stop7" /></linearGradient><path
     fill="url(#b)"
     fill-rule="evenodd"
     d="M 118.27143,1 H 26.471429 c -2.9,0 -5.7,2.3 -6.4,5.2 L 1.6714286,86.8 c -0.70000003,2.9 1.1,5.2 4,5.2 H 97.471429 c 2.900001,0 5.700001,-2.3 6.400001,-5.2 l 18.4,-80.5 c 0.7,-2.9 -1.1,-5.3 -4,-5.3 z"
     clip-rule="evenodd"
     id="path7"
     style="fill:url(#b)" /><path
     fill="#2c5591"
     fill-rule="evenodd"
     d="m 62.171429,70.8 h 22.3 c 2.6,0 4.7,2.2 4.7,4.9 0,2.7 -2.1,4.9 -4.7,4.9 h -22.3 c -2.6,0 -4.7,-2.2 -4.7,-4.9 0,-2.7 2.1,-4.9 4.7,-4.9 z m 14.5,-21.8 c -0.4,0.8 -1.2,1.6 -2.6,2.6 l -41.5,29.8 c -2.3,1.6 -5.5,1 -7.3,-1.4 -1.7,-2.4 -1.3,-5.7 0.9,-7.3 l 37.4,-27.1 V 45 l -23.5,-25 c -1.9,-2 -1.7,-5.3 0.4,-7.4 2.2,-2 5.5,-2 7.4,0 l 28.2,30 c 1.7,1.9 1.8,4.5 0.6,6.4 z"
     clip-rule="evenodd"
     id="path8" /><path
     fill="#ffffff"
     fill-rule="evenodd"
     d="m 75.571429,48 c -0.4,0.8 -1.2,1.6 -2.6,2.6 l -41.4,29.8 c -2.3,1.6 -5.5,1 -7.3,-1.4 -1.7,-2.4 -1.3,-5.7 0.9,-7.3 l 37.4,-27.1 V 44 l -23.5,-25 c -1.9,-2 -1.7,-5.3 0.4,-7.4 2.2,-2 5.5,-2 7.4,0 l 28.2,30 c 1.7,1.8 1.8,4.4 0.5,6.4 z m -14.1,22.3 h 22.3 c 2.6,0 4.7,2.1 4.7,4.6 0,2.6 -2.1,4.6 -4.7,4.6 h -22.3 c -2.6,0 -4.7,-2.1 -4.7,-4.6 0,-2.6 2.1,-4.6 4.7,-4.6 z"
     clip-rule="evenodd"
     id="path9" /></svg>
